<svg width="29" height="30" viewBox="0 0 29 30" fill="none" xmlns="http://www.w3.org/2000/svg">
<path d="M27.9436 17.3671C28.8386 9.83338 27.5136 5.07714 25.1236 2.92589L25.1249 2.92464C21.2674 -0.749115 8.23986 -1.29287 3.62486 3.08964C1.55236 5.23339 0.822355 8.37964 0.742355 12.2746C0.662355 16.1709 0.567355 23.4696 7.36861 25.4496H7.37486L7.36861 28.4734C7.36861 28.4734 7.32236 29.6984 8.10486 29.9446C8.99986 30.2346 9.40486 29.6659 12.1886 26.3409C16.8436 26.7446 20.4186 25.8196 20.8249 25.6846C21.7649 25.3696 27.0836 24.6659 27.9436 17.3671ZM12.6474 24.2134C12.6474 24.2134 9.70111 27.8871 8.78486 28.8409C8.48486 29.1509 8.15611 29.1221 8.16111 28.5071C8.16111 28.1034 8.18361 23.4871 8.18361 23.4871C2.41736 21.8346 2.75736 15.6196 2.81986 12.3684C2.88236 9.11589 3.47736 6.45214 5.23236 4.65839C9.28111 0.862135 20.7024 1.71089 23.6124 4.44589C27.1699 7.59964 25.9036 16.5096 25.9111 16.8134C25.1799 22.9059 20.8699 23.2921 20.0774 23.5559C19.7386 23.6684 16.5949 24.4771 12.6474 24.2134Z" fill="currentColor"/>
<path d="M14.277 5.37214C13.7957 5.37214 13.7957 6.12214 14.277 6.12839C18.0107 6.15714 21.0857 8.75964 21.1195 13.5334C21.1195 14.0371 21.857 14.0309 21.8507 13.5271H21.8495C21.8095 8.38339 18.452 5.40089 14.277 5.37214Z" fill="currentColor"/>
<path d="M19.1884 12.7421C19.1771 13.2396 19.9134 13.2634 19.9196 12.7596C19.9809 9.92339 18.2321 7.58714 14.9459 7.34089C14.4646 7.30589 14.4146 8.06214 14.8946 8.09714C17.7446 8.31339 19.2459 10.2584 19.1884 12.7421Z" fill="currentColor"/>
<path d="M18.4015 15.9684C17.784 15.6109 17.1552 15.8334 16.8952 16.1846L16.3515 16.8884C16.0752 17.2459 15.559 17.1984 15.559 17.1984C11.7915 16.2021 10.784 12.2596 10.784 12.2596C10.784 12.2596 10.7377 11.7259 11.0827 11.4396L11.7627 10.8771C12.1027 10.6071 12.3177 9.95711 11.9715 9.31836C11.0465 7.64711 10.4252 7.07086 10.109 6.62836C9.77647 6.21211 9.27647 6.11836 8.75647 6.39961H8.74522C7.66397 7.03211 6.48022 8.21586 6.85897 9.43461C7.50522 10.7196 8.69272 14.8159 12.4777 17.9109C14.2565 19.3746 17.0715 20.8746 18.2665 21.2209L18.2777 21.2384C19.4552 21.6309 20.6002 20.4009 21.2115 19.2871V19.2784C21.4827 18.7396 21.3927 18.2296 20.9965 17.8959C20.294 17.2109 19.234 16.4546 18.4015 15.9684Z" fill="currentColor"/>
<path d="M15.4608 10.1309C16.662 10.2009 17.2446 10.8284 17.3071 12.1171C17.3296 12.6209 18.0608 12.5859 18.0383 12.0821C17.9583 10.3996 17.0808 9.46212 15.5008 9.37462C15.0195 9.34587 14.9745 10.1021 15.4608 10.1309Z" fill="currentColor"/>
</svg>
