<svg width="24" height="24" viewBox="0 0 24 24" fill="none" xmlns="http://www.w3.org/2000/svg">
<path d="M11.9973 0.922799C7.45852 0.922799 3.14852 0.51905 1.50227 4.74405C0.822268 6.48905 0.921018 8.7553 0.921018 12.0003C0.921018 14.8478 0.829768 17.524 1.50227 19.2553C3.14477 23.4828 7.48977 23.0778 11.9948 23.0778C16.341 23.0778 20.8223 23.5303 22.4885 19.2553C23.1698 17.4928 23.0698 15.2603 23.0698 12.0003C23.0698 7.6728 23.3085 4.87905 21.2098 2.78155C19.0848 0.656549 16.211 0.922799 11.9923 0.922799H11.9973ZM11.0048 2.91905C20.4723 2.90405 21.6773 1.85155 21.0123 16.4728C20.776 21.6441 16.8385 21.0765 11.9985 21.0765C3.17352 21.0765 2.91977 20.8241 2.91977 11.9953C2.91977 3.06405 3.61977 2.92405 11.0048 2.91655V2.91905ZM17.9098 4.7578C17.176 4.7578 16.581 5.3528 16.581 6.08655C16.581 6.8203 17.176 7.4153 17.9098 7.4153C18.6435 7.4153 19.2385 6.8203 19.2385 6.08655C19.2385 5.3528 18.6435 4.7578 17.9098 4.7578ZM11.9973 6.31155C8.85602 6.31155 6.30977 8.85905 6.30977 12.0003C6.30977 15.1416 8.85602 17.6878 11.9973 17.6878C15.1385 17.6878 17.6835 15.1416 17.6835 12.0003C17.6835 8.85905 15.1385 6.31155 11.9973 6.31155ZM11.9973 8.3078C16.8785 8.3078 16.8848 15.6928 11.9973 15.6928C7.11727 15.6928 7.10977 8.3078 11.9973 8.3078Z" fill="currentColor"/>
</svg>
